# xmcd
#
# Track frame offsets:
#	183
#	13458
#	22325
#	29790
#	40840
#	48675
#	59120
#	68153
#	77075
#	85355
#	95850
#	107343
#	118620
#	130558
#	142583
#	152768
#
# Disc length: 2166 seconds
#
# Revision: 1
# Processed by: cddbd v1.5.2PL0 Copyright (c) Steve Scherf et al.
# Submitted via: audiograbber 1.83.01
#
DISCID=e3087410
DTITLE=Nelson Ricky - Boppin' The Blues
DYEAR=1993
DGENRE=Rock'n'Roll
TTITLE0=Honeycomb
TTITLE1=Boppin' the Blues
TTITLE2=Teenage Doll
TTITLE3=Baby i'm Sorry
TTITLE4=Am i Blue
TTITLE5=I'm Confessin'
TTITLE6=Your True Love 
TTITLE7=Shirley Lee
TTITLE8=There's Good Rockin' Tonight
TTITLE9=I'm Feelin' Sorry
TTITLE10=Down the Line 
TTITLE11=Don't Leave me this Way 
TTITLE12=My Baby
TTITLE13=I'll Walk Alone
TTITLE14=There goes my baby
TTITLE15=A long Vaction
EXTD=
EXTT0=
EXTT1=
EXTT2=
EXTT3=
EXTT4=
EXTT5=
EXTT6=
EXTT7=
EXTT8=
EXTT9=
EXTT10=
EXTT11=
EXTT12=
EXTT13=
EXTT14=
EXTT15=
PLAYORDER=
